<svg width="18" height="18" viewBox="0 0 18 18" fill="none" xmlns="http://www.w3.org/2000/svg">
<path d="M2 18C1.45 18 0.975 17.8083 0.575 17.425C0.191667 17.025 0 16.55 0 16V2C0 1.45 0.191667 0.983334 0.575 0.600001C0.975 0.2 1.45 0 2 0H16C16.55 0 17.0167 0.2 17.4 0.600001C17.8 0.983334 18 1.45 18 2V16C18 16.55 17.8 17.025 17.4 17.425C17.0167 17.8083 16.55 18 16 18H2ZM9 13C9.63333 13 10.2083 12.8167 10.725 12.45C11.2417 12.0833 11.6 11.6 11.8 11H16V2H2V11H6.2C6.4 11.6 6.75833 12.0833 7.275 12.45C7.79167 12.8167 8.36667 13 9 13Z" fill="#49454F"/>
</svg>
