<svg width="18" height="18" viewBox="0 0 18 18" fill="none" xmlns="http://www.w3.org/2000/svg">
<path d="M3.87499 13.25C4.58332 12.7083 5.37499 12.2813 6.24999 11.9688C7.12499 11.6563 8.04166 11.5 8.99999 11.5C9.95832 11.5 10.875 11.6563 11.75 11.9688C12.625 12.2813 13.4167 12.7083 14.125 13.25C14.6111 12.6806 14.9896 12.0347 15.2604 11.3125C15.5312 10.5903 15.6667 9.81945 15.6667 9.00001C15.6667 7.15278 15.0174 5.57987 13.7187 4.28126C12.4201 2.98264 10.8472 2.33334 8.99999 2.33334C7.15277 2.33334 5.57985 2.98264 4.28124 4.28126C2.98263 5.57987 2.33332 7.15278 2.33332 9.00001C2.33332 9.81945 2.46874 10.5903 2.73957 11.3125C3.01041 12.0347 3.38888 12.6806 3.87499 13.25ZM8.99999 9.83334C8.18055 9.83334 7.48957 9.55209 6.92707 8.98959C6.36457 8.42709 6.08332 7.73612 6.08332 6.91667C6.08332 6.09723 6.36457 5.40626 6.92707 4.84376C7.48957 4.28126 8.18055 4.00001 8.99999 4.00001C9.81944 4.00001 10.5104 4.28126 11.0729 4.84376C11.6354 5.40626 11.9167 6.09723 11.9167 6.91667C11.9167 7.73612 11.6354 8.42709 11.0729 8.98959C10.5104 9.55209 9.81944 9.83334 8.99999 9.83334ZM8.99999 17.3333C7.84721 17.3333 6.76388 17.1146 5.74999 16.6771C4.7361 16.2396 3.85416 15.6458 3.10416 14.8958C2.35416 14.1458 1.76041 13.2639 1.32291 12.25C0.885406 11.2361 0.666656 10.1528 0.666656 9.00001C0.666656 7.84723 0.885406 6.76389 1.32291 5.75001C1.76041 4.73612 2.35416 3.85417 3.10416 3.10417C3.85416 2.35417 4.7361 1.76042 5.74999 1.32292C6.76388 0.885422 7.84721 0.666672 8.99999 0.666672C10.1528 0.666672 11.2361 0.885422 12.25 1.32292C13.2639 1.76042 14.1458 2.35417 14.8958 3.10417C15.6458 3.85417 16.2396 4.73612 16.6771 5.75001C17.1146 6.76389 17.3333 7.84723 17.3333 9.00001C17.3333 10.1528 17.1146 11.2361 16.6771 12.25C16.2396 13.2639 15.6458 14.1458 14.8958 14.8958C14.1458 15.6458 13.2639 16.2396 12.25 16.6771C11.2361 17.1146 10.1528 17.3333 8.99999 17.3333Z" fill="#49454F"/>
</svg>
