<?xml version="1.0" standalone="no"?>
<!DOCTYPE svg PUBLIC "-//W3C//DTD SVG 20010904//EN"
 "http://www.w3.org/TR/2001/REC-SVG-20010904/DTD/svg10.dtd">
<svg version="1.0" xmlns="http://www.w3.org/2000/svg"
 width="500.000000pt" height="500.000000pt" viewBox="0 0 500.000000 500.000000"
 preserveAspectRatio="xMidYMid meet">

<g transform="translate(0.000000,500.000000) scale(0.100000,-0.100000)"
fill="#000000" stroke="none">
<path d="M2342 4213 c5 -20 4 -20 -21 -5 -80 45 -158 -58 -100 -132 26 -34 86
-37 115 -5 17 19 19 19 25 2 4 -10 8 -30 8 -45 1 -16 6 -28 12 -28 6 0 9 6 6
13 -3 8 -11 57 -17 111 -7 53 -17 99 -23 103 -6 4 -8 -2 -5 -14z m-7 -33 c11
-12 15 -31 13 -56 -4 -48 -41 -74 -85 -59 -62 22 -70 105 -11 129 36 15 60 11
83 -14z"/>
<path d="M2432 4168 c-2 -57 1 -71 19 -89 24 -24 75 -20 97 8 11 15 12 15 12
-6 0 -12 4 -20 9 -16 12 7 11 165 -1 165 -4 0 -8 -26 -8 -58 0 -68 -18 -92
-68 -92 -39 0 -46 11 -53 90 l-6 65 -1 -67z"/>
<path d="M2647 4195 c-4 -22 -6 -62 -6 -90 1 -48 2 -47 11 20 10 79 6 132 -5
70z"/>
<path d="M2720 4191 c-14 -28 -5 -43 40 -69 42 -24 51 -45 24 -60 -18 -10 -61
-4 -70 9 -3 5 -10 9 -16 9 -21 0 13 -29 42 -35 75 -16 96 54 28 90 -62 33 -41
82 23 58 16 -6 29 -8 29 -3 0 26 -86 27 -100 1z"/>
<path d="M2090 4177 c-18 -9 -25 -21 -25 -42 0 -27 4 -30 40 -35 50 -7 65 -16
65 -40 0 -21 -18 -30 -63 -31 -29 0 -30 -1 -11 -11 25 -12 70 6 88 34 16 26
-18 56 -67 60 -32 2 -43 8 -45 22 -5 23 14 36 51 36 16 0 26 4 22 10 -8 13
-25 12 -55 -3z"/>
<path d="M2875 4171 c-3 -6 9 -8 29 -4 40 6 78 -23 70 -55 -5 -17 -10 -18 -43
-9 -56 15 -91 3 -91 -32 0 -16 6 -34 14 -40 16 -14 67 -18 85 -7 7 4 11 0 11
-11 1 -31 16 5 31 71 12 57 12 59 -10 77 -24 20 -86 26 -96 10z m78 -90 c21
-21 -6 -46 -48 -46 -42 0 -63 21 -51 50 5 14 14 17 47 12 23 -3 46 -10 52 -16z"/>
<path d="M1925 4128 c-32 -17 -45 -39 -45 -74 0 -45 36 -85 77 -86 33 -1 83
25 83 43 0 6 -12 1 -26 -10 -34 -27 -76 -27 -99 -1 -10 11 -16 22 -14 23 2 2
32 14 67 27 34 12 62 28 62 35 0 17 -48 55 -69 55 -9 0 -25 -6 -36 -12z m81
-25 c16 -16 14 -18 -26 -35 -74 -31 -90 -33 -90 -9 0 51 79 81 116 44z"/>
<path d="M1725 4035 c-14 -13 -25 -30 -25 -36 0 -7 -7 -4 -15 7 -28 37 -14 0
37 -97 28 -55 55 -99 61 -99 5 0 -3 20 -17 44 l-26 45 34 -6 c30 -5 40 -1 66
25 39 39 39 74 1 113 -38 37 -82 39 -116 4z m99 -6 c22 -17 26 -28 24 -57 -6
-73 -90 -95 -123 -32 -21 40 -19 57 10 85 30 31 54 31 89 4z"/>
<path d="M3090 4035 c0 -8 7 -15 15 -15 8 0 15 7 15 15 0 8 -7 15 -15 15 -8 0
-15 -7 -15 -15z"/>
<path d="M3239 4017 c-21 -16 -39 -51 -39 -77 0 -32 53 -80 87 -80 26 1 26 2
-10 15 -21 7 -40 15 -41 17 -15 16 -24 49 -20 66 6 20 8 19 70 -15 36 -19 68
-32 71 -29 4 4 7 23 7 43 0 25 -7 41 -23 54 -26 21 -78 24 -102 6z m89 -14
c21 -18 25 -32 23 -66 -1 -15 -8 -13 -58 15 -74 40 -71 37 -49 54 27 19 59 18
84 -3z"/>
<path d="M3432 3913 l-2 -51 -51 -17 c-28 -9 -48 -19 -45 -22 3 -3 25 2 50 10
l46 16 2 -52 1 -52 6 54 c6 54 7 55 49 69 24 8 41 16 38 19 -3 3 -19 0 -37 -6
-47 -16 -48 -15 -52 37 l-3 47 -2 -52z"/>
<path d="M1575 3869 c-10 -15 1 -23 20 -15 9 3 13 10 10 16 -8 13 -22 13 -30
-1z"/>
<path d="M3595 3860 c-4 -6 -14 -9 -22 -6 -11 4 -13 2 -9 -9 3 -9 -11 -33 -34
-60 -22 -26 -40 -54 -40 -64 0 -21 19 -41 39 -41 11 0 9 5 -7 16 -12 8 -22 19
-22 24 0 10 69 94 82 99 5 1 18 -5 29 -15 10 -9 19 -13 19 -8 0 5 -9 15 -21
22 -17 11 -18 16 -8 28 6 8 9 17 6 20 -3 3 -8 0 -12 -6z"/>
<path d="M2430 3797 c-30 -18 -154 -91 -276 -161 l-221 -129 -7 -156 c-4 -86
-6 -230 -6 -321 1 -128 -1 -167 -12 -173 -7 -4 -123 -73 -258 -152 l-245 -144
-2 -338 -3 -338 98 -55 c53 -30 180 -103 281 -162 101 -60 185 -108 187 -108
5 0 421 239 473 272 25 15 50 28 56 28 7 0 99 -51 206 -113 107 -62 226 -131
265 -152 l71 -39 214 126 c118 69 244 143 282 164 l67 38 0 336 0 335 -47 29
c-27 16 -148 87 -270 158 l-223 130 0 317 0 316 -279 163 c-154 89 -283 162
-288 162 -4 -1 -33 -15 -63 -33z m-23 -336 c14 -30 2 -57 -31 -73 -50 -22 -96
43 -59 84 24 27 74 21 90 -11z m261 17 c21 -21 14 -66 -13 -84 -49 -32 -104
23 -75 75 12 24 68 29 88 9z m-134 -50 c20 -29 20 -47 -1 -70 -18 -20 -63 -24
-81 -6 -7 7 -12 26 -12 43 0 17 5 36 12 43 20 20 65 14 82 -10z m-118 -72 c27
-20 11 -30 -27 -17 -46 16 -57 14 -84 -14 -21 -20 -25 -34 -25 -85 l0 -60 45
0 c25 0 45 -4 45 -10 0 -5 -25 -10 -55 -10 l-55 0 0 76 c0 70 2 78 29 105 33
33 92 40 127 15z m277 -10 c32 -30 39 -56 35 -127 l-3 -54 -52 -3 c-32 -2 -53
1 -53 7 0 6 18 11 40 11 l41 0 -3 66 c-3 59 -6 69 -30 87 -24 18 -32 19 -65 9
-43 -13 -57 -7 -29 14 31 22 89 18 119 -10z m-147 -36 c38 -24 49 -63 45 -162
-1 -28 -2 -28 -66 -28 -37 0 -65 4 -65 10 0 6 25 10 55 10 l55 0 0 54 c0 72
-26 106 -80 106 -30 0 -43 -5 -54 -22 -19 -29 -25 -130 -8 -136 21 -7 13 -22
-13 -22 -24 0 -25 2 -25 71 0 67 2 73 34 105 40 40 73 44 122 14z m-316 -60
c13 -25 9 -95 -5 -95 -5 0 -11 22 -13 48 -2 32 -7 47 -15 44 -8 -2 -13 -35
-15 -94 l-3 -90 51 -61 c44 -53 50 -65 50 -106 0 -25 -4 -46 -10 -46 -5 0 -10
18 -10 41 0 35 -7 49 -50 96 l-50 55 0 107 c0 59 3 111 7 114 14 15 53 6 63
-13z m587 3 c5 -10 8 -62 8 -115 l0 -97 -47 -48 c-44 -44 -48 -53 -48 -96 0
-35 -4 -47 -15 -47 -11 0 -15 12 -15 45 0 40 6 51 50 100 l50 55 0 101 c0 76
-3 100 -12 97 -7 -3 -14 -25 -16 -51 -2 -26 -7 -47 -13 -47 -10 0 -13 79 -3
104 8 22 51 20 61 -1z m-484 -182 l67 -69 0 -76 c0 -44 -4 -76 -10 -76 -6 0
-10 30 -10 71 l0 71 -64 67 c-54 55 -66 63 -72 48 -5 -13 3 -27 25 -49 35 -34
41 -54 12 -39 -21 12 -71 68 -71 81 0 13 30 40 44 40 7 0 43 -31 79 -69z m425
57 c21 -21 13 -43 -28 -83 -47 -46 -55 -26 -8 22 25 26 29 36 20 45 -18 18
-131 -106 -134 -147 -6 -118 -6 -115 -18 -115 -15 0 -12 127 4 158 18 34 120
132 138 132 8 0 19 -5 26 -12z m184 -599 c37 -10 104 -58 83 -59 -6 0 -28 9
-50 20 -133 68 -292 -64 -245 -204 6 -20 29 -55 51 -78 39 -43 45 -55 52 -113
2 -16 5 8 6 54 1 74 -2 88 -21 108 -12 13 -27 23 -34 23 -21 0 -28 40 -10 58
22 22 48 5 57 -37 4 -17 14 -40 24 -51 14 -16 16 -30 10 -88 -5 -56 -4 -72 9
-85 24 -24 19 -37 -13 -37 -36 0 -49 16 -60 75 -6 33 -19 58 -44 83 -44 45
-57 78 -57 144 0 86 57 162 140 186 47 14 59 14 102 1z m-742 -144 l0 -115
-152 -1 c-84 -1 -161 -1 -170 0 -13 2 -18 -5 -18 -22 0 -35 -24 -51 -65 -44
l-35 6 0 -98 c0 -112 -4 -119 -67 -119 -53 -1 -63 15 -63 92 0 45 -4 57 -20
66 -17 9 -20 21 -20 75 0 54 4 69 22 87 16 16 21 32 19 56 -3 37 11 60 47 73
48 18 99 -40 81 -90 -8 -19 -5 -28 15 -46 13 -12 36 -25 50 -27 29 -6 27 -15
27 127 0 43 3 83 5 87 3 4 81 8 175 8 l169 0 0 -115z m977 84 c91 -34 139
-149 97 -231 -15 -29 -15 -31 12 -59 15 -16 35 -29 43 -29 19 0 111 -90 111
-109 0 -7 -14 -27 -31 -44 l-31 -29 -54 53 c-30 29 -54 58 -54 63 0 6 -14 24
-31 42 -30 31 -31 31 -69 18 -69 -24 -144 2 -185 65 -47 71 -42 147 13 213 44
52 115 71 179 47z m-250 -75 c3 -8 1 -25 -5 -37 -6 -12 -14 -55 -17 -95 -10
-99 -25 -101 -25 -2 0 44 -5 89 -12 99 -6 10 -8 26 -5 35 8 21 56 21 64 0z
m15 -218 c-9 -17 -20 -34 -26 -38 -6 -4 0 -25 17 -57 15 -27 26 -55 25 -63 -2
-7 8 -14 22 -16 14 -2 29 -8 35 -13 5 -5 17 -9 27 -9 10 0 18 -7 18 -15 0 -8
9 -15 20 -15 11 0 20 6 20 14 0 16 59 39 87 34 12 -2 18 4 19 17 2 33 25 85
35 79 14 -8 -1 -87 -21 -108 -10 -10 -33 -20 -51 -21 -18 -2 -38 -10 -44 -19
-16 -21 -85 -22 -85 -1 0 15 -4 17 -53 20 -32 2 -69 32 -65 54 3 25 -11 59
-27 65 -19 7 -20 62 -1 73 18 11 38 51 31 63 -3 6 -3 15 1 21 4 8 11 4 19 -11
10 -18 9 -29 -3 -54z m-958 8 c30 -30 33 -59 11 -92 -15 -20 -14 -23 15 -49
20 -19 31 -39 32 -63 l3 -35 -109 -3 c-60 -1 -113 1 -117 5 -14 14 10 81 37
102 24 19 25 21 10 43 -22 31 -20 52 10 87 33 39 71 41 108 5z m241 1 c27 -26
32 -63 14 -97 -9 -17 -8 -24 9 -37 26 -21 42 -53 42 -85 l0 -26 -115 0 -115 0
0 34 c0 24 9 43 29 65 28 30 29 33 15 60 -17 35 -7 71 28 95 32 23 65 20 93
-9z m777 -61 c-3 -34 25 -70 62 -80 33 -8 84 21 92 51 3 14 12 25 19 25 22 0
4 -49 -27 -75 -68 -58 -168 -13 -168 75 0 29 4 40 13 37 7 -2 11 -16 9 -33z
m-102 -114 c0 -5 -18 -10 -40 -10 -22 0 -40 5 -40 10 0 6 18 10 40 10 22 0 40
-4 40 -10z m14 -36 c31 -12 16 -24 -29 -24 -33 0 -45 4 -45 15 0 16 43 21 74
9z m16 -54 c0 -5 -18 -10 -41 -10 -24 0 -38 4 -34 10 3 6 22 10 41 10 19 0 34
-4 34 -10z"/>
<path d="M2334 3456 c-10 -26 4 -48 28 -44 17 2 23 10 23 28 0 18 -6 26 -23
28 -13 2 -25 -3 -28 -12z"/>
<path d="M2604 3455 c-8 -21 2 -45 19 -45 8 0 20 7 27 15 10 12 10 18 0 30 -7
8 -19 15 -27 15 -7 0 -16 -7 -19 -15z"/>
<path d="M2472 3418 c-16 -16 -15 -33 2 -47 22 -18 48 -2 44 28 -3 28 -27 38
-46 19z"/>
<path d="M2790 2309 c0 -5 5 -7 10 -4 6 3 10 8 10 11 0 2 -4 4 -10 4 -5 0 -10
-5 -10 -11z"/>
<path d="M1880 2380 l0 -90 150 0 150 0 0 90 0 90 -150 0 -150 0 0 -90z m60
55 c0 -8 -7 -15 -15 -15 -8 0 -15 7 -15 15 0 8 7 15 15 15 8 0 15 -7 15 -15z
m190 0 c0 -12 -16 -15 -84 -15 -78 0 -105 7 -89 24 3 3 44 6 90 6 67 0 83 -3
83 -15z m-190 -50 c0 -8 -7 -15 -15 -15 -16 0 -20 12 -8 23 11 12 23 8 23 -8z
m190 0 c0 -12 -16 -15 -84 -15 -78 0 -105 7 -89 24 3 3 44 6 90 6 67 0 83 -3
83 -15z m-190 -55 c0 -5 -7 -10 -15 -10 -8 0 -15 5 -15 10 0 6 7 10 15 10 8 0
15 -4 15 -10z m190 0 c0 -6 -37 -10 -90 -10 -53 0 -90 4 -90 10 0 6 37 10 90
10 53 0 90 -4 90 -10z"/>
<path d="M1666 2404 c-9 -8 -16 -22 -16 -29 0 -16 27 -45 41 -45 24 0 49 22
49 43 0 44 -43 62 -74 31z"/>
<path d="M1625 2290 c-10 -17 -16 -83 -8 -104 6 -17 8 -14 13 17 10 75 25 37
28 -73 3 -123 22 -154 22 -36 0 41 4 77 9 80 13 8 23 -44 20 -101 -2 -30 1
-48 9 -51 9 -3 12 26 12 113 0 117 0 117 23 110 44 -14 87 -17 87 -6 0 6 -10
11 -23 11 -13 0 -34 11 -47 25 -20 21 -33 25 -81 25 -32 0 -61 -4 -64 -10z"/>
<path d="M3055 2431 c-58 -35 -70 -57 -70 -128 0 -62 2 -66 37 -98 47 -43 95
-53 153 -31 110 43 120 201 15 257 -44 24 -97 24 -135 0z m29 -27 c9 -24 7
-64 -3 -64 -11 0 -21 25 -21 56 0 27 15 32 24 8z m-62 -79 c0 -5 -5 -11 -11
-13 -6 -2 -11 4 -11 13 0 9 5 15 11 13 6 -2 11 -8 11 -13z m98 -27 c14 -15 31
-22 55 -21 35 1 62 -18 50 -37 -3 -6 -12 -7 -18 -3 -7 5 -19 8 -27 9 -25 1
-80 25 -80 35 0 14 -37 10 -43 -5 -8 -19 -45 -27 -51 -10 -3 8 -2 14 3 14 4 0
18 9 31 20 30 26 54 25 80 -2z m23 -93 c19 -13 19 -15 3 -21 -10 -4 -22 -2
-29 5 -6 6 -23 11 -38 11 -32 0 -47 16 -22 23 24 7 62 -1 86 -18z"/>
<path d="M3237 2183 c-8 -12 50 -69 60 -59 4 3 -7 20 -24 37 -17 17 -33 27
-36 22z"/>
<path d="M3315 2100 c-18 -20 -18 -21 20 -60 l39 -40 20 20 21 20 -41 40 -40
41 -19 -21z m75 -60 c0 -5 -4 -10 -10 -10 -5 0 -10 5 -10 10 0 6 5 10 10 10 6
0 10 -4 10 -10z"/>
<path d="M1892 2168 c-17 -17 -15 -54 4 -72 18 -19 55 -21 72 -4 7 7 12 24 12
38 0 14 -5 31 -12 38 -7 7 -24 12 -38 12 -14 0 -31 -5 -38 -12z"/>
<path d="M1869 2021 c-16 -16 -29 -34 -29 -40 0 -7 32 -11 90 -11 93 0 104 6
77 41 -36 47 -97 51 -138 10z"/>
<path d="M2136 2164 c-33 -32 -8 -84 39 -84 45 0 67 67 31 92 -19 13 -54 9
-70 -8z"/>
<path d="M2130 2037 c-13 -7 -30 -24 -37 -37 l-12 -25 86 -3 c47 -2 88 -1 90
2 11 11 -11 47 -37 61 -35 18 -57 19 -90 2z"/>
<path d="M1375 3795 c-34 -33 -34 -84 1 -119 37 -36 77 -34 116 4 25 26 29 36
24 63 -13 70 -94 100 -141 52z m97 -5 c39 -30 42 -68 8 -102 -36 -35 -64 -36
-95 -2 -32 34 -32 68 0 99 29 30 54 32 87 5z"/>
<path d="M3635 3741 c-57 -24 -75 -93 -36 -135 24 -25 61 -41 61 -25 0 5 -7 9
-15 9 -25 0 -55 38 -55 69 0 48 19 47 70 -4 42 -41 51 -46 65 -35 15 13 20 55
9 85 -6 15 -54 46 -71 44 -4 0 -17 -4 -28 -8z m75 -31 c20 -20 25 -45 14 -75
-6 -14 -16 -8 -55 31 -26 26 -46 51 -43 56 10 15 64 8 84 -12z"/>
<path d="M1234 3653 c-17 -18 -24 -35 -21 -51 3 -17 1 -20 -6 -13 -6 6 -16 11
-21 11 -6 -1 18 -27 54 -60 35 -32 67 -56 70 -53 3 2 -11 19 -31 36 -48 42
-62 69 -49 101 20 53 76 49 129 -8 14 -14 29 -26 35 -26 22 1 -89 90 -112 90
-12 0 -34 -12 -48 -27z"/>
<path d="M3746 3569 c-37 -29 -64 -54 -62 -57 3 -2 22 9 43 25 50 39 68 45 98
31 27 -12 41 -45 31 -75 -4 -10 -27 -33 -52 -51 -25 -19 -43 -36 -40 -39 10
-10 106 72 112 96 8 29 -3 49 -44 77 -23 16 -28 24 -19 33 26 26 -5 7 -67 -40z"/>
<path d="M1080 3560 c0 -5 5 -10 10 -10 6 0 10 5 10 10 0 6 -4 10 -10 10 -5 0
-10 -4 -10 -10z"/>
<path d="M1137 3519 c17 -21 123 -93 128 -87 3 2 -23 24 -58 49 -69 49 -88 59
-70 38z"/>
<path d="M1074 3436 c-40 -63 10 -98 72 -51 19 15 42 24 49 21 24 -9 17 -47
-12 -80 -28 -29 -28 -30 -3 -14 35 21 54 62 40 88 -15 27 -45 25 -86 -6 -54
-42 -90 -6 -44 44 12 12 16 22 11 22 -6 0 -18 -11 -27 -24z"/>
<path d="M3891 3431 c-10 -7 -12 -21 -7 -59 5 -38 3 -52 -9 -62 -13 -11 -19
-10 -35 5 -11 10 -25 32 -30 49 l-10 31 5 -34 c9 -60 56 -91 85 -56 8 10 11
31 7 59 -8 56 12 79 43 51 11 -10 20 -26 20 -37 0 -10 4 -18 10 -18 11 0 -4
46 -22 67 -12 15 -37 17 -57 4z"/>
<path d="M1005 3299 c-22 -18 -26 -28 -23 -60 3 -34 1 -38 -14 -33 -10 3 -18
3 -18 -1 0 -9 152 -77 158 -71 2 3 -13 13 -34 23 -81 36 -108 88 -66 126 25
23 44 21 102 -8 28 -14 50 -21 50 -17 0 8 -108 62 -122 62 -3 0 -18 -10 -33
-21z"/>
<path d="M4063 3313 c11 -3 17 -14 17 -34 0 -21 5 -29 18 -28 10 0 12 3 5 6
-7 2 -13 18 -13 34 0 24 -4 29 -22 28 -17 -1 -19 -2 -5 -6z"/>
<path d="M3990 3304 c0 -7 7 -14 15 -18 23 -8 37 -53 25 -77 -14 -24 -37 -25
-45 0 -10 32 -45 71 -64 71 -21 0 -51 -30 -51 -52 0 -9 13 -30 29 -47 16 -17
25 -31 20 -31 -5 0 -9 -4 -9 -9 0 -14 112 37 128 57 6 8 12 24 12 34 0 19 -59
90 -60 72z m-32 -74 c29 -44 28 -60 -5 -60 -35 0 -63 27 -63 61 0 49 34 49 68
-1z"/>
<path d="M925 3105 c-53 -52 -16 -139 60 -139 19 0 43 8 54 18 25 23 38 83 22
99 -9 9 -10 4 -5 -18 7 -39 -26 -85 -62 -85 -29 0 -29 2 -4 75 11 31 17 61 14
66 -10 17 -55 9 -79 -16z m65 2 c0 -13 -30 -108 -36 -116 -2 -2 -13 4 -24 14
-29 26 -26 69 6 94 30 24 54 27 54 8z"/>
<path d="M3975 3105 c-52 -51 -17 -135 56 -135 76 0 114 75 68 134 -28 36 -89
37 -124 1z m114 -11 c27 -35 26 -59 -4 -89 -33 -34 -77 -33 -104 1 -27 35 -26
59 4 89 33 34 77 33 104 -1z"/>
<path d="M916 2873 c-45 -156 -44 -482 3 -685 47 -200 129 -392 236 -553 73
-111 255 -316 255 -289 0 5 -27 36 -61 69 -122 120 -260 326 -330 494 -40 96
-85 250 -106 366 -22 120 -22 428 0 535 14 68 16 107 3 63z"/>
<path d="M4091 2883 c-1 -7 6 -58 15 -114 22 -141 15 -424 -15 -557 -69 -310
-204 -568 -414 -789 -39 -40 -67 -76 -64 -79 3 -3 44 38 91 92 94 105 208 268
260 373 126 251 187 561 165 844 -8 112 -34 269 -38 230z"/>
<path d="M1702 1268 c-11 -18 -35 -62 -55 -98 l-36 -65 69 -38 c65 -35 90 -40
90 -17 0 6 -22 21 -50 35 -52 26 -59 39 -37 69 12 16 15 16 58 -9 38 -21 48
-23 58 -12 9 11 1 19 -39 41 -46 25 -49 28 -38 51 14 31 21 31 75 -1 40 -23
63 -25 63 -4 0 8 -119 80 -133 80 -3 0 -14 -15 -25 -32z"/>
<path d="M3290 1227 c-56 -28 -63 -95 -15 -143 32 -32 75 -31 114 2 33 27 41
54 16 54 -8 0 -15 -4 -15 -10 0 -17 -48 -42 -70 -35 -30 10 -25 17 33 49 28
16 54 31 56 33 3 2 -8 17 -24 33 -31 32 -56 37 -95 17z m54 -23 c9 -3 16 -10
16 -14 0 -8 -62 -50 -74 -50 -12 0 -6 34 11 52 18 20 23 21 47 12z"/>
<path d="M1865 1138 c3 -18 9 -40 11 -49 4 -16 -13 -34 -62 -66 -16 -10 -17
-13 -4 -22 10 -7 23 -4 46 10 39 24 44 24 44 -2 0 -28 18 -59 35 -59 11 0 12
7 4 32 -15 55 -11 72 27 96 27 18 33 27 25 35 -8 8 -19 6 -42 -7 -33 -20 -49
-12 -49 26 0 10 -9 22 -21 29 -20 10 -21 9 -14 -23z"/>
<path d="M3135 1148 c-39 -22 -46 -55 -19 -83 12 -12 26 -15 54 -10 66 11 66
-30 0 -44 -41 -8 -43 -25 -4 -29 57 -6 107 61 72 96 -7 7 -31 12 -53 12 -23 0
-45 3 -48 7 -12 11 14 33 39 33 15 0 24 6 24 15 0 18 -36 20 -65 3z"/>
<path d="M2047 1109 c-3 -12 -10 -18 -15 -15 -6 3 -12 -1 -15 -8 -3 -8 -1 -16
4 -18 7 -2 6 -25 -2 -67 -13 -59 -12 -64 6 -77 22 -16 56 -15 62 2 2 6 -5 14
-17 17 -23 6 -25 29 -9 76 10 27 15 32 34 27 15 -4 25 -1 28 8 4 9 -3 16 -19
20 -20 5 -23 11 -18 31 5 20 2 25 -14 25 -12 0 -22 -9 -25 -21z"/>
<path d="M2989 1095 c-59 -32 -39 -92 33 -97 60 -4 60 -32 1 -36 -57 -4 -61
-32 -5 -32 51 0 82 23 82 61 0 33 -27 49 -81 49 -16 0 -29 4 -29 10 0 14 39
32 51 24 12 -7 31 15 23 28 -8 12 -46 9 -75 -7z"/>
<path d="M2684 1053 c3 -27 9 -79 13 -116 4 -45 11 -71 20 -74 8 -3 16 -3 20
0 3 4 0 58 -7 122 -12 103 -15 115 -33 115 -18 0 -19 -5 -13 -47z"/>
<path d="M2514 1070 c-38 -15 -64 -59 -64 -107 0 -38 5 -50 34 -79 29 -29 41
-34 79 -34 51 0 100 30 81 49 -7 8 -19 7 -43 -5 -55 -28 -111 8 -111 71 0 38
15 60 49 75 25 10 35 9 60 -3 25 -12 32 -13 41 -2 26 31 -70 58 -126 35z"/>
<path d="M2156 1043 c-13 -45 -28 -144 -23 -150 15 -14 35 9 41 48 8 52 21 69
52 69 17 0 24 6 24 20 0 23 0 23 -34 10 -21 -7 -26 -6 -26 5 0 21 -28 19 -34
-2z"/>
<path d="M2814 1050 c-26 -10 -37 -26 -29 -40 4 -7 14 -5 28 5 27 19 51 19 67
0 13 -16 11 -18 -42 -29 -15 -4 -35 -17 -44 -31 -15 -23 -15 -27 0 -50 18 -28
53 -33 89 -13 12 7 32 11 43 9 22 -2 22 -2 8 66 -8 38 -22 74 -31 81 -19 14
-58 15 -89 2z m86 -93 c0 -21 -36 -49 -57 -45 -27 5 -23 41 7 49 39 11 50 10
50 -4z"/>
<path d="M2285 1020 c-11 -18 3 -27 35 -22 29 4 60 -11 60 -29 0 -5 -23 -7
-51 -6 -40 1 -54 -3 -65 -18 -19 -26 -18 -41 7 -66 17 -17 29 -20 60 -16 22 3
39 1 39 -4 0 -5 6 -9 14 -9 16 0 25 33 28 104 2 37 -2 51 -17 62 -22 16 -101
19 -110 4z m63 -86 c41 -11 21 -44 -28 -44 -23 0 -34 16 -26 35 6 16 18 18 54
9z"/>
<path d="M2232 604 c-2 -68 14 -94 60 -94 42 0 60 30 55 96 l-3 59 -2 -61 c-2
-67 -13 -84 -53 -84 -37 0 -47 17 -52 85 l-3 60 -2 -61z"/>
<path d="M2402 583 c1 -43 3 -61 5 -41 4 34 7 37 41 41 l37 4 -37 1 c-35 2
-38 4 -38 31 0 28 3 30 43 34 l42 4 -47 1 -48 2 2 -77z"/>
<path d="M2525 635 c-14 -13 -25 -36 -25 -50 0 -35 42 -75 78 -75 62 0 96 86
50 126 -23 19 -23 19 -5 -2 22 -27 22 -76 -1 -97 -40 -36 -112 -6 -112 46 0
34 21 58 60 67 33 7 33 8 7 9 -17 1 -37 -8 -52 -24z"/>
<path d="M2691 583 c1 -43 4 -66 6 -50 4 23 9 27 38 27 37 0 65 21 65 50 0 30
-28 50 -71 50 l-39 0 1 -77z m93 45 c17 -27 -5 -52 -48 -56 l-36 -3 0 41 0 41
36 -3 c22 -2 42 -10 48 -20z"/>
</g>
</svg>
